<svg version="1.1" viewBox="0.0 0.0 360.0 720.0" fill="none" stroke="none" stroke-linecap="square" stroke-miterlimit="10" xmlns:xlink="http://www.w3.org/1999/xlink" xmlns="http://www.w3.org/2000/svg"><clipPath id="p.0"><path d="m0 0l360.0 0l0 720.0l-360.0 0l0 -720.0z" clip-rule="nonzero"/></clipPath><g clip-path="url(#p.0)"><path fill="#000000" fill-opacity="0.0" d="m0 0l360.0 0l0 720.0l-360.0 0z" fill-rule="evenodd"/><path fill="#000000" fill-opacity="0.0" d="m0 0l360.0 0l0 720.0l-360.0 0z" fill-rule="evenodd"/><path stroke="#000000" stroke-width="16.0" stroke-linejoin="round" stroke-linecap="butt" d="m0 0l360.0 0l0 720.0l-360.0 0z" fill-rule="evenodd"/><path fill="#000000" fill-opacity="0.0" d="m119.88 0l0.34645844 720.0" fill-rule="evenodd"/><path stroke="#000000" stroke-width="8.0" stroke-linejoin="round" stroke-linecap="butt" d="m119.88 0l0.34645844 720.0" fill-rule="evenodd"/><path fill="#000000" fill-opacity="0.0" d="m240.12 0l0.34646606 720.0" fill-rule="evenodd"/><path stroke="#000000" stroke-width="8.0" stroke-linejoin="round" stroke-linecap="butt" d="m240.12 0l0.34646606 720.0" fill-rule="evenodd"/><path fill="#000000" fill-opacity="0.0" d="m0 180.48l360.0 0.94488525" fill-rule="evenodd"/><path stroke="#000000" stroke-width="8.0" stroke-linejoin="round" stroke-linecap="butt" d="m0 180.48l360.0 0.94488525" fill-rule="evenodd"/><path fill="#000000" fill-opacity="0.0" d="m0 360.0l360.0 0.94488525" fill-rule="evenodd"/><path stroke="#000000" stroke-width="8.0" stroke-linejoin="round" stroke-linecap="butt" d="m0 360.0l360.0 0.94488525" fill-rule="evenodd"/><path fill="#000000" fill-opacity="0.0" d="m0 540.48l360.0 0.94488525" fill-rule="evenodd"/><path stroke="#000000" stroke-width="8.0" stroke-linejoin="round" stroke-linecap="butt" d="m0 540.48l360.0 0.94488525" fill-rule="evenodd"/></g></svg>